<svg xmlns="http://www.w3.org/2000/svg" width="78" height="78" viewBox="0 0 78 78"><g transform="translate(-212.051 -890)"><path d="M36,0A36,36,0,1,1,0,36,36,36,0,0,1,36,0Z" transform="translate(215.051 893)" fill="#fff" stroke="#bfd4ef" stroke-width="6"/><path d="M23.619,4.371A19.248,19.248,0,1,0,42.867,23.619,19.248,19.248,0,0,0,23.619,4.371ZM1.25,23.619A22.369,22.369,0,1,1,23.619,45.988,22.369,22.369,0,0,1,1.25,23.619Zm11.555-1.561h5.307a5.715,5.715,0,0,1,1.4-2.427l-2.654-4.6A10.914,10.914,0,0,0,12.805,22.059Zm6.758-8.586,2.654,4.6a5.768,5.768,0,0,1,2.8,0l2.654-4.6a10.965,10.965,0,0,0-8.112,0Zm10.814,1.563-2.654,4.6a5.718,5.718,0,0,1,1.4,2.427h5.307A10.914,10.914,0,0,0,30.377,15.035ZM34.433,25.18H29.126a5.714,5.714,0,0,1-1.4,2.427l2.654,4.6A10.914,10.914,0,0,0,34.433,25.18Zm-6.758,8.586-2.654-4.6a5.768,5.768,0,0,1-2.8,0l-2.654,4.6a10.965,10.965,0,0,0,8.112,0ZM16.861,32.2l2.654-4.6a5.717,5.717,0,0,1-1.4-2.427H12.805A10.914,10.914,0,0,0,16.861,32.2Zm5.48-6.318-.023-.013-.022-.012a2.6,2.6,0,0,1-.008-4.475l.03-.017.032-.019a2.6,2.6,0,0,1,2.533,0l.037.022.036.02a2.6,2.6,0,0,1-.019,4.476l-.016.009-.017.01a2.6,2.6,0,0,1-2.561,0ZM9.573,23.619A14.046,14.046,0,1,1,23.619,37.665,14.046,14.046,0,0,1,9.573,23.619Z" transform="translate(227.801 905.75)" fill="#4c77ae" fill-rule="evenodd"/></g></svg>