<svg xmlns="http://www.w3.org/2000/svg" width="55.392" height="49.72" viewBox="0 0 55.392 49.72"><g transform="translate(1 1)"><g transform="translate(0 0)"><line x1="16.589" transform="translate(16.589 42.101)" fill="none" stroke="#4c77ae" stroke-linecap="round" stroke-linejoin="round" stroke-miterlimit="10" stroke-width="2"/><line x1="37.625" transform="translate(3.836 47.72)" fill="none" stroke="#4c77ae" stroke-linecap="round" stroke-linejoin="round" stroke-miterlimit="10" stroke-width="2"/><line x1="0.184" transform="translate(0.166 47.72)" fill="none" stroke="#4c77ae" stroke-linecap="round" stroke-linejoin="round" stroke-miterlimit="10" stroke-width="2"/><path d="M4.335,29.171H2.5V25.5" transform="translate(-0.499 13.043)" fill="none" stroke="#4c77ae" stroke-linecap="round" stroke-linejoin="round" stroke-miterlimit="10" stroke-width="2"/><line x1="16.589" transform="translate(13.271 38.783)" fill="none" stroke="#4c77ae" stroke-linecap="round" stroke-linejoin="round" stroke-miterlimit="10" stroke-width="2"/><line x1="5.972" transform="translate(0 38.783)" fill="none" stroke="#4c77ae" stroke-linecap="round" stroke-linejoin="round" stroke-miterlimit="10" stroke-width="2"/><path d="M26.5,28.753h6.424a.918.918,0,0,0,.918-.918V26" transform="translate(19.55 13.461)" fill="none" stroke="#4c77ae" stroke-linecap="round" stroke-linejoin="round" stroke-miterlimit="10" stroke-width="2"/><ellipse cx="4.313" cy="4.313" rx="4.313" ry="4.313" transform="translate(37.16 38.783)" fill="none" stroke="#4c77ae" stroke-linecap="round" stroke-linejoin="round" stroke-miterlimit="10" stroke-width="2"/><ellipse cx="4.645" cy="4.313" rx="4.645" ry="4.313" transform="translate(7.299 38.783)" fill="none" stroke="#4c77ae" stroke-linecap="round" stroke-linejoin="round" stroke-miterlimit="10" stroke-width="2"/><ellipse cx="0.995" cy="0.995" rx="0.995" ry="0.995" transform="translate(40.478 42.101)" fill="none" stroke="#4c77ae" stroke-linecap="round" stroke-linejoin="round" stroke-miterlimit="10" stroke-width="2"/><ellipse cx="0.995" cy="0.995" rx="0.995" ry="0.995" transform="translate(11.281 42.101)" fill="none" stroke="#4c77ae" stroke-linecap="round" stroke-linejoin="round" stroke-miterlimit="10" stroke-width="2"/><path d="M32.787,11.5H24.335A1.835,1.835,0,0,0,22.5,13.335v5.506a5.508,5.508,0,0,0,5.506,5.506h9.177V23.43Z" transform="translate(16.209 1.348)" fill="none" stroke="#4c77ae" stroke-miterlimit="10" stroke-width="2"/><rect width="5.309" height="3.981" transform="translate(47.777 34.802)" fill="none" stroke="#4c77ae" stroke-linecap="round" stroke-linejoin="round" stroke-miterlimit="10" stroke-width="2"/><line y2="35.169" transform="translate(0 3.614)" fill="none" stroke="#4c77ae" stroke-linecap="round" stroke-linejoin="round" stroke-miterlimit="10" stroke-width="2"/><path d="M34.537,46.714V4.5H1.5" transform="translate(-1.334 -4.5)" fill="none" stroke="#4c77ae" stroke-linecap="round" stroke-linejoin="round" stroke-miterlimit="10" stroke-width="2"/><path d="M19.5,39.7V8.5h8.646a7.345,7.345,0,0,1,6.89,4.8l4.653,12.633V40.619" transform="translate(13.703 -1.158)" fill="none" stroke="#4c77ae" stroke-linecap="round" stroke-linejoin="round" stroke-miterlimit="10" stroke-width="2"/><line x1="0.184" transform="translate(0.166 47.72)" fill="none" stroke="#4c77ae" stroke-linecap="round" stroke-linejoin="round" stroke-miterlimit="10" stroke-width="2"/></g></g></svg>