<svg xmlns="http://www.w3.org/2000/svg" width="51.266" height="49.721" viewBox="0 0 51.266 49.721"><g transform="translate(1 1)"><g transform="translate(0 0)"><g transform="translate(13.074)"><path d="M22.507,5a4.26,4.26,0,0,1-6.573,5.026" transform="translate(-4.567 -0.74)" fill="none" stroke="#4c77ae" stroke-linecap="round" stroke-linejoin="round" stroke-miterlimit="10" stroke-width="2"/><path d="M25.071,31.537V22.708A3.393,3.393,0,0,0,22.4,19.385L14.01,17.527l.886-3.018" transform="translate(-5.923 5.958)" fill="none" stroke="#4c77ae" stroke-linecap="round" stroke-linejoin="round" stroke-miterlimit="10" stroke-width="2"/><path d="M17.69,13.229,22.874,18.7a1.807,1.807,0,0,0,.971.477l6.919.852a.83.83,0,0,0,.2.017,1.7,1.7,0,0,0,.2-3.392l-6.153-.767-4.039-4.772a5.485,5.485,0,0,0-6.236-1.687c-5.081,2.164-8.915,17.435-.735,17.435A61.729,61.729,0,0,1,23.3,28.21l1.244,8.913A3.9,3.9,0,0,0,28.413,40.5" transform="translate(-9.265 2.109)" fill="none" stroke="#4c77ae" stroke-linecap="round" stroke-linejoin="round" stroke-miterlimit="10" stroke-width="2"/><path d="M19.613,6.761h5.113c0-2.352-2.284-4.261-5.113-4.261h-.852A4.262,4.262,0,0,0,14.5,6.761v.852a3.413,3.413,0,0,0,.477,1.7h2.079A2.553,2.553,0,0,0,19.613,6.761Z" transform="translate(-5.577 -2.5)" fill="none" stroke="#4c77ae" stroke-linecap="round" stroke-linejoin="round" stroke-miterlimit="10" stroke-width="2"/></g><g transform="translate(0 0.275)"><path d="M15.443,27.5A5.115,5.115,0,0,1,5.9,30.06" transform="translate(1.441 14.833)" fill="none" stroke="#4c77ae" stroke-linecap="round" stroke-linejoin="round" stroke-miterlimit="10" stroke-width="2"/><path d="M32.58,25.19a5.115,5.115,0,1,1-7.656,6.565" transform="translate(14.839 13.206)" fill="none" stroke="#4c77ae" stroke-linecap="round" stroke-linejoin="round" stroke-miterlimit="10" stroke-width="2"/><line x1="6.778" transform="translate(22.182 42.516)" fill="none" stroke="#4c77ae" stroke-linecap="round" stroke-linejoin="round" stroke-miterlimit="10" stroke-width="2"/><path d="M22.952,21.5v5.113a5.106,5.106,0,0,0,5.113,5.113H2.5l1.3-4.516a10.165,10.165,0,0,1,3.049-4.842" transform="translate(-0.955 10.607)" fill="none" stroke="#4c77ae" stroke-linecap="round" stroke-linejoin="round" stroke-miterlimit="10" stroke-width="2"/><line x1="6.778" transform="translate(8.626 36.971)" fill="none" stroke="#4c77ae" stroke-linecap="round" stroke-linejoin="round" stroke-miterlimit="10" stroke-width="2"/><path d="M26.738,30.317H23.5A6.81,6.81,0,0,1,34.817,25.2l-3.373,3.221A6.808,6.808,0,0,1,26.738,30.317Z" transform="translate(13.836 12.016)" fill="none" stroke="#4c77ae" stroke-linecap="round" stroke-linejoin="round" stroke-miterlimit="10" stroke-width="2"/><line x2="8.01" transform="translate(1.849 13.556)" fill="none" stroke="#4c77ae" stroke-linecap="round" stroke-linejoin="round" stroke-miterlimit="10" stroke-width="2"/><line x2="8.626" transform="translate(0 3.081)" fill="none" stroke="#4c77ae" stroke-linecap="round" stroke-linejoin="round" stroke-miterlimit="10" stroke-width="2"/><line x2="13.556" transform="translate(4.929)" fill="none" stroke="#4c77ae" stroke-linecap="round" stroke-linejoin="round" stroke-miterlimit="10" stroke-width="2"/><path d="M27.909,16.613h-.852a2.556,2.556,0,0,1,0-5.113h.852a1.709,1.709,0,0,1,1.7,1.7v1.7A1.709,1.709,0,0,1,27.909,16.613Z" transform="translate(14.54 3.564)" fill="none" stroke="#4c77ae" stroke-linecap="round" stroke-linejoin="round" stroke-miterlimit="10" stroke-width="2"/><path d="M18.5,34.543h3.409a3.41,3.41,0,0,0,3.409-3.409V17.5" transform="translate(10.314 7.79)" fill="none" stroke="#4c77ae" stroke-linecap="round" stroke-linejoin="round" stroke-miterlimit="10" stroke-width="2"/><path d="M23.012,14.557a3.956,3.956,0,0,1,3.047,3.277L28,30.339" transform="translate(13.492 5.717)" fill="none" stroke="#4c77ae" stroke-linecap="round" stroke-linejoin="round" stroke-miterlimit="10" stroke-width="2"/></g><path d="M20.987,22.909H8.2a1.7,1.7,0,1,1,0-3.409h6.817" transform="translate(1.862 9.473)" fill="none" stroke="#4c77ae" stroke-linecap="round" stroke-linejoin="round" stroke-miterlimit="10" stroke-width="2"/></g></g></svg>