<svg xmlns="http://www.w3.org/2000/svg" width="55.226" height="40.783" viewBox="0 0 55.226 40.783"><g transform="translate(1 1)"><g transform="translate(0 0)"><line x1="2.601" transform="translate(0 14.683)" fill="none" stroke="#4c77ae" stroke-linecap="round" stroke-linejoin="round" stroke-miterlimit="10" stroke-width="2"/><line x1="2.601" transform="translate(49.555 16.519)" fill="none" stroke="#4c77ae" stroke-linecap="round" stroke-linejoin="round" stroke-miterlimit="10" stroke-width="2"/><path d="M6.419,10.621l-.934,1.6a3.67,3.67,0,0,0,3.17,5.519h8.292" transform="translate(1.407 -6.728)" fill="none" stroke="#4c77ae" stroke-linecap="round" stroke-linejoin="round" stroke-miterlimit="10" stroke-width="2"/><line x2="15.737" transform="translate(16.451 27.531)" fill="none" stroke="#4c77ae" stroke-linecap="round" stroke-linejoin="round" stroke-miterlimit="10" stroke-width="2"/><path d="M48.972,35.2l5.754-1.918-.7-9.026a3.666,3.666,0,0,0-3.1-3.346l-9.052-1.393L35.055,12.07A11.015,11.015,0,0,0,26.937,8.5H10.055a3.673,3.673,0,0,0-3.188,1.85L1.5,19.749V32.1a3.671,3.671,0,0,0,1.263,2.771" transform="translate(-1.5 -8.5)" fill="none" stroke="#4c77ae" stroke-linecap="round" stroke-linejoin="round" stroke-miterlimit="10" stroke-width="2"/><path d="M33.348,26.924A6.424,6.424,0,1,1,26.924,20.5,6.431,6.431,0,0,1,33.348,26.924Z" transform="translate(14.372 1.525)" fill="none" stroke="#4c77ae" stroke-miterlimit="10" stroke-width="2"/><path d="M16.348,26.924A6.424,6.424,0,1,1,9.924,20.5,6.431,6.431,0,0,1,16.348,26.924Z" transform="translate(0.171 1.525)" fill="none" stroke="#4c77ae" stroke-miterlimit="10" stroke-width="2"/><ellipse cx="2.654" cy="2.986" rx="2.654" ry="2.986" transform="translate(38.573 25.512)" fill="none" stroke="#4c77ae" stroke-miterlimit="10" stroke-width="2"/><ellipse cx="2.654" cy="2.986" rx="2.654" ry="2.986" transform="translate(7.385 25.512)" fill="none" stroke="#4c77ae" stroke-miterlimit="10" stroke-width="2"/><path d="M13.7,10.539l.543,7.27H31.683" transform="translate(8.695 -6.797)" fill="none" stroke="#4c77ae" stroke-linecap="round" stroke-linejoin="round" stroke-miterlimit="10" stroke-width="2"/><line x1="14.599" transform="translate(18.666 24.185)" fill="none" stroke="#4c77ae" stroke-linecap="round" stroke-linejoin="round" stroke-miterlimit="10" stroke-width="2"/><line x1="2.601" transform="translate(49.555 22.025)" fill="none" stroke="#4c77ae" stroke-linecap="round" stroke-linejoin="round" stroke-miterlimit="10" stroke-width="2"/><line x2="37.596" transform="translate(3.7 34.872)" fill="none" stroke="#4c77ae" stroke-linecap="round" stroke-linejoin="round" stroke-miterlimit="10" stroke-width="2"/><line x1="0.184" transform="translate(0 34.872)" fill="none" stroke="#4c77ae" stroke-linecap="round" stroke-linejoin="round" stroke-miterlimit="10" stroke-width="2"/><line x1="33.179" transform="translate(19.993 38.783)" fill="none" stroke="#4c77ae" stroke-linecap="round" stroke-linejoin="round" stroke-miterlimit="10" stroke-width="2"/></g></g></svg>