<svg xmlns="http://www.w3.org/2000/svg" width="62.33" height="49.72" viewBox="0 0 62.33 49.72"><g transform="translate(1 1)"><line x1="19.763" transform="translate(18.723 37.447)" fill="none" stroke="#4c77ae" stroke-linecap="round" stroke-linejoin="round" stroke-miterlimit="10" stroke-width="2"/><path d="M24.5,21.982l12.482,4.327v-.166l-2.829-14.1A8.112,8.112,0,0,0,33.2,9.5H24.5Z" transform="translate(23.348 -5.339)" fill="none" stroke="#4c77ae" stroke-linecap="round" stroke-linejoin="round" stroke-miterlimit="10" stroke-width="2"/><rect width="12.034" height="12.786" transform="translate(10.53 4.096)" fill="none" stroke="#4c77ae" stroke-linecap="round" stroke-linejoin="round" stroke-miterlimit="10" stroke-width="2"/><rect width="12.786" height="12.786" transform="translate(22.564 4.096)" fill="none" stroke="#4c77ae" stroke-linecap="round" stroke-linejoin="round" stroke-miterlimit="10" stroke-width="2"/><rect width="12.786" height="12.786" transform="translate(35.351 4.096)" fill="none" stroke="#4c77ae" stroke-linecap="round" stroke-linejoin="round" stroke-miterlimit="10" stroke-width="2"/><path d="M1.5,21.982H11.9V9.5H6.035" transform="translate(-1.5 -5.339)" fill="none" stroke="#4c77ae" stroke-linecap="round" stroke-linejoin="round" stroke-miterlimit="10" stroke-width="2"/><line x1="42.647" transform="translate(4.161 43.688)" fill="none" stroke="#4c77ae" stroke-linecap="round" stroke-linejoin="round" stroke-miterlimit="10" stroke-width="2"/><line x1="0.208" transform="translate(0 43.688)" fill="none" stroke="#4c77ae" stroke-linecap="round" stroke-linejoin="round" stroke-miterlimit="10" stroke-width="2"/><ellipse cx="5.265" cy="5.265" rx="5.265" ry="5.265" transform="translate(41.368 33.43)" fill="none" stroke="#4c77ae" stroke-linecap="round" stroke-linejoin="round" stroke-miterlimit="10" stroke-width="2"/><ellipse cx="5.265" cy="5.265" rx="5.265" ry="5.265" transform="translate(8.274 33.43)" fill="none" stroke="#4c77ae" stroke-linecap="round" stroke-linejoin="round" stroke-miterlimit="10" stroke-width="2"/><ellipse cx="1.128" cy="1.128" rx="1.128" ry="1.128" transform="translate(45.881 37.19)" fill="none" stroke="#4c77ae" stroke-linecap="round" stroke-linejoin="round" stroke-miterlimit="10" stroke-width="2"/><ellipse cx="0.752" cy="1.128" rx="0.752" ry="1.128" transform="translate(12.786 37.19)" fill="none" stroke="#4c77ae" stroke-linecap="round" stroke-linejoin="round" stroke-miterlimit="10" stroke-width="2"/><line x1="0.208" transform="translate(0 43.688)" fill="none" stroke="#4c77ae" stroke-linecap="round" stroke-linejoin="round" stroke-miterlimit="10" stroke-width="2"/><path d="M3.58,20.5H1.5v4.161H3.58" transform="translate(-1.5 6.545)" fill="none" stroke="#4c77ae" stroke-linecap="round" stroke-linejoin="round" stroke-miterlimit="10" stroke-width="2"/><rect width="3.761" height="4.513" transform="translate(56.411 28.917)" fill="none" stroke="#4c77ae" stroke-linecap="round" stroke-linejoin="round" stroke-miterlimit="10" stroke-width="2"/><path d="M6.7,44.947H3.58a2.086,2.086,0,0,1-2.08-2.08V13.741A6.233,6.233,0,0,1,7.741,7.5H50.846A8.312,8.312,0,0,1,59,14.2L61.83,28.3V42.866a2.086,2.086,0,0,1-2.08,2.08H53.405" transform="translate(-1.5 -7.5)" fill="none" stroke="#4c77ae" stroke-linecap="round" stroke-linejoin="round" stroke-miterlimit="10" stroke-width="2"/><line x1="37.607" transform="translate(22.564 47.72)" fill="none" stroke="#4c77ae" stroke-linecap="round" stroke-linejoin="round" stroke-miterlimit="10" stroke-width="2"/></g></svg>