<svg xmlns="http://www.w3.org/2000/svg" width="51.533" height="49.445" viewBox="0 0 51.533 49.445"><g transform="translate(1 1)"><g transform="translate(0 0)"><path d="M26.2,13.5a1.709,1.709,0,0,0-1.7,1.7v8.521a1.709,1.709,0,0,0,1.7,1.7h8.521L32.34,13.5Z" transform="translate(14.699 4.972)" fill="none" stroke="#4c77ae" stroke-linecap="round" stroke-linejoin="round" stroke-miterlimit="10" stroke-width="2"/><path d="M17.352,23.726h6.817a.845.845,0,0,0,.852-.852V14.352a.844.844,0,0,0-.852-.852H17.352a.844.844,0,0,0-.852.852v8.521A.845.845,0,0,0,17.352,23.726Z" transform="translate(9.064 4.972)" fill="none" stroke="#4c77ae" stroke-linecap="round" stroke-linejoin="round" stroke-miterlimit="10" stroke-width="2"/><g transform="translate(0.239 0)"><line x2="49.294" fill="none" stroke="#4c77ae" stroke-linecap="round" stroke-linejoin="round" stroke-miterlimit="10" stroke-width="2"/><line x2="49.294" transform="translate(0 45.597)" fill="none" stroke="#4c77ae" stroke-linecap="round" stroke-linejoin="round" stroke-miterlimit="10" stroke-width="2"/><path d="M26.5,31.2V29.5h5.113v1.7" transform="translate(15.869 16.241)" fill="none" stroke="#4c77ae" stroke-linecap="round" stroke-linejoin="round" stroke-miterlimit="10" stroke-width="2"/><path d="M20.5,31.2V29.5h5.113v1.7" transform="translate(11.643 16.241)" fill="none" stroke="#4c77ae" stroke-linecap="round" stroke-linejoin="round" stroke-miterlimit="10" stroke-width="2"/><path d="M14.5,31.2V29.5h5.113v1.7" transform="translate(7.417 16.241)" fill="none" stroke="#4c77ae" stroke-linecap="round" stroke-linejoin="round" stroke-miterlimit="10" stroke-width="2"/><path d="M8.5,31.2V29.5h5.113v1.7" transform="translate(3.191 16.241)" fill="none" stroke="#4c77ae" stroke-linecap="round" stroke-linejoin="round" stroke-miterlimit="10" stroke-width="2"/><path d="M2.5,31.2V29.5H7.613v1.7" transform="translate(-1.034 16.241)" fill="none" stroke="#4c77ae" stroke-linecap="round" stroke-linejoin="round" stroke-miterlimit="10" stroke-width="2"/></g><ellipse cx="1.704" cy="1.704" rx="1.704" ry="1.704" transform="translate(29.825 39.776)" fill="none" stroke="#4c77ae" stroke-miterlimit="10" stroke-width="2"/><ellipse cx="1.704" cy="1.704" rx="1.704" ry="1.704" transform="translate(23.008 39.776)" fill="none" stroke="#4c77ae" stroke-miterlimit="10" stroke-width="2"/><path d="M10.352,23.726h6.817a.845.845,0,0,0,.852-.852V14.352a.844.844,0,0,0-.852-.852H10.352a.844.844,0,0,0-.852.852v8.521A.845.845,0,0,0,10.352,23.726Z" transform="translate(4.134 4.972)" fill="none" stroke="#4c77ae" stroke-linecap="round" stroke-linejoin="round" stroke-miterlimit="10" stroke-width="2"/><path d="M1.5,10.5H43.323a5.11,5.11,0,0,1,5.011,4.107l2.591,12.936V37.769a1.709,1.709,0,0,1-1.7,1.7H38.142l-.375-2.267a3.405,3.405,0,0,0-3.359-2.846H24.832a3.406,3.406,0,0,0-3.359,2.846L21.1,39.473H6.613" transform="translate(-1.5 2.86)" fill="none" stroke="#4c77ae" stroke-linecap="round" stroke-linejoin="round" stroke-miterlimit="10" stroke-width="2"/><g transform="translate(0 18.472)"><path d="M4.058,13.5H3.2a1.709,1.709,0,0,0-1.7,1.7V37.36H6.613" transform="translate(-1.5 -13.5)" fill="none" stroke="#4c77ae" stroke-linecap="round" stroke-linejoin="round" stroke-miterlimit="10" stroke-width="2"/><path d="M4.5,13.5H7.909a1.709,1.709,0,0,1,1.7,1.7V37.36" transform="translate(0.613 -13.5)" fill="none" stroke="#4c77ae" stroke-linecap="round" stroke-linejoin="round" stroke-miterlimit="10" stroke-width="2"/><line x2="4.929" transform="translate(5.168 11.72)" fill="none" stroke="#4c77ae" stroke-linecap="round" stroke-linejoin="round" stroke-miterlimit="10" stroke-width="2"/><line x2="2.556" transform="translate(0 11.93)" fill="none" stroke="#4c77ae" stroke-linecap="round" stroke-linejoin="round" stroke-miterlimit="10" stroke-width="2"/><line y2="24.031" transform="translate(5.168 0.013)" fill="none" stroke="#4c77ae" stroke-linecap="round" stroke-linejoin="round" stroke-miterlimit="10" stroke-width="2"/></g><path d="M13.5,3.5l5.965,5.965L13.5,15.43" transform="translate(6.951 -2.07)" fill="none" stroke="#4c77ae" stroke-linecap="round" stroke-linejoin="round" stroke-miterlimit="10" stroke-width="2"/><line x1="3.369" transform="translate(46.016 35.515)" fill="none" stroke="#4c77ae" stroke-linecap="round" stroke-linejoin="round" stroke-miterlimit="10" stroke-width="2"/></g></g></svg>