<svg xmlns="http://www.w3.org/2000/svg" width="62.164" height="62.165" viewBox="0 0 62.164 62.165"><g transform="translate(-180 -2933.075)"><g transform="translate(168.929 2927.076)"><g transform="translate(11.071 5.999)"><circle cx="31.082" cy="31.082" r="31.082" transform="translate(0)" fill="#bfd4ef"/><circle cx="24.96" cy="24.96" r="24.96" transform="translate(6.593 5.651)" fill="#fff"/></g><g transform="translate(25 27.307)"><path d="M142.883,47.862a3.6,3.6,0,1,0,3.6,3.6,3.6,3.6,0,0,0-3.6-3.6m0,6.108a2.507,2.507,0,1,1,2.507-2.507,2.51,2.51,0,0,1-2.507,2.507" transform="translate(-134.187 -31.515)" fill="#395983"/><path d="M146.925,54a1.5,1.5,0,1,0,1.5,1.5,1.5,1.5,0,0,0-1.5-1.5" transform="translate(-138.23 -35.557)" fill="#395983"/><path d="M196.781,47.862a3.6,3.6,0,1,0,3.6,3.6,3.6,3.6,0,0,0-3.6-3.6m0,6.108a2.507,2.507,0,1,1,2.507-2.507,2.51,2.51,0,0,1-2.507,2.507" transform="translate(-169.678 -31.515)" fill="#395983"/><path d="M200.823,54a1.5,1.5,0,1,0,1.5,1.5,1.5,1.5,0,0,0-1.5-1.5" transform="translate(-173.72 -35.557)" fill="#395983"/><path d="M158.336,9.161,155.317,7.9a20.046,20.046,0,0,0-3-4.221.546.546,0,0,0-.359-.134h-4.478V.548A.547.547,0,0,0,146.937,0H124.912a.547.547,0,0,0-.547.547V13.905a.547.547,0,0,0,.547.547h.95v3.991a.547.547,0,0,0,.547.547h2.412a.547.547,0,0,0,.515-.364,3.952,3.952,0,0,1,7.449,0,.547.547,0,0,0,.515.364h9.929a.547.547,0,0,0,.515-.364,3.952,3.952,0,0,1,7.449,0,.547.547,0,0,0,.515.364h2.417a.547.547,0,0,0,.547-.547V9.665a.548.548,0,0,0-.336-.5M147.492,4.635h4.256a22.539,22.539,0,0,1,2.7,3.954.548.548,0,0,0,.269.242l2.859,1.2v3.39H147.492ZM125.459,2.693h1.382V11.8h-1.382Zm2.085,0h1.47V11.8h-1.47Zm2.173,0h1.47V11.8h-1.47Zm2.174,0h1.47V11.8h-1.47Zm2.174,0h1.47V11.8h-1.47Zm2.174,0h1.47V11.8h-1.47Zm2.173,0h1.47V11.8h-1.47Zm2.174,0h1.47V11.8h-1.47Zm2.174,0h1.47V11.8h-1.47Zm2.173,0h1.458V11.8h-1.458Zm-19.473-1.6H146.39v.817H125.459Zm0,11.49H146.39v.773H125.459ZM157.578,17.9h-1.5a5.045,5.045,0,0,0-9.219,0H137.67a5.045,5.045,0,0,0-9.219,0h-1.495V14.513h30.622Z" transform="translate(-124.365 -0.001)" fill="#395983"/><path d="M196.912,16.328h-2.881v3.416h5.318l-.029-.048a23.87,23.87,0,0,0-2.409-3.367" transform="translate(-170.238 -10.752)" fill="#395983"/><rect width="1.732" height="0.63" transform="translate(24.567 10.291)" fill="#395983"/></g></g></g></svg>